<svg width="39" height="32" viewBox="0 0 39 32" fill="none" xmlns="http://www.w3.org/2000/svg">
<g filter="url(#filter0_d_109_36)">
<path d="M4 21.4286V2.57143C4 1.85715 4.25144 1.25029 4.75433 0.750861C5.25722 0.251433 5.86689 0.00114675 6.58333 3.8961e-06C7.29978 -0.00113896 7.91002 0.249147 8.41405 0.750861C8.91809 1.25258 9.16896 1.85943 9.16666 2.57143V21.4286C9.16666 22.1429 8.91579 22.7503 8.41405 23.2509C7.91231 23.7514 7.30207 24.0011 6.58333 24C5.86459 23.9989 5.25493 23.7491 4.75433 23.2509C4.25374 22.7526 4.0023 22.1451 4 21.4286ZM13.4722 24C12.7546 24 12.145 23.7503 11.6432 23.2509C11.1415 22.7514 10.89 22.144 10.8889 21.4286V2.57143C10.8889 1.85715 11.1403 1.25029 11.6432 0.750861C12.1461 0.251433 12.7558 0.00114675 13.4722 3.8961e-06H25.5278C26.2454 3.8961e-06 26.8556 0.25029 27.3585 0.750861C27.8614 1.25143 28.1122 1.85829 28.1111 2.57143V21.4286C28.1111 22.1429 27.8602 22.7503 27.3585 23.2509C26.8567 23.7514 26.2465 24.0011 25.5278 24H13.4722ZM29.8333 21.4286V2.57143C29.8333 1.85715 30.0848 1.25029 30.5877 0.750861C31.0905 0.251433 31.7002 0.00114675 32.4167 3.8961e-06C33.1331 -0.00113896 33.7433 0.249147 34.2474 0.750861C34.7514 1.25258 35.0023 1.85943 35 2.57143V21.4286C35 22.1429 34.7491 22.7503 34.2474 23.2509C33.7456 23.7514 33.1354 24.0011 32.4167 24C31.6979 23.9989 31.0882 23.7491 30.5877 23.2509C30.0871 22.7526 29.8356 22.1451 29.8333 21.4286Z" fill="white"/>
</g>
<defs>
<filter id="filter0_d_109_36" x="0" y="0" width="39" height="32" filterUnits="userSpaceOnUse" color-interpolation-filters="sRGB">
<feFlood flood-opacity="0" result="BackgroundImageFix"/>
<feColorMatrix in="SourceAlpha" type="matrix" values="0 0 0 0 0 0 0 0 0 0 0 0 0 0 0 0 0 0 127 0" result="hardAlpha"/>
<feOffset dy="4"/>
<feGaussianBlur stdDeviation="2"/>
<feComposite in2="hardAlpha" operator="out"/>
<feColorMatrix type="matrix" values="0 0 0 0 0 0 0 0 0 0 0 0 0 0 0 0 0 0 0.6 0"/>
<feBlend mode="normal" in2="BackgroundImageFix" result="effect1_dropShadow_109_36"/>
<feBlend mode="normal" in="SourceGraphic" in2="effect1_dropShadow_109_36" result="shape"/>
</filter>
</defs>
</svg>
